# xmcd CD database file
#
# Track frame offsets:
#	150
#	13029
#	25391
#	39388
#	51361
#	63980
#	75561
#	87148
#	101823
#	115422
#	127266
#	142212
#	156937
#	170520
#	185700
#	199252
#	212056
#	226070
#	240636
#	253912
#
# Disc length: 3554 seconds
#
# Revision: 3
# Processed by: cddbd v1.5.2PL0 Copyright (c) Steve Scherf et al.
# Submitted via: CDex 1.51
#
DISCID=260de014
DTITLE=Coleman Hawkins - CD2 - Meet Doctor Foo
DYEAR=1900
DGENRE=Jazz
TTITLE0=I Know That You Know (Hilversum, June 14, 1938)
TTITLE1=When Buddah Smiles (Hilversum, June 14, 1938)
TTITLE2=Swinging In The Groove (Hilversum, June 14, 1938)
TTITLE3=The Darktown Strutter's Ball (London, May 26, 1939)
TTITLE4=My Melancholy Baby (London, May 26, 1939)
TTITLE5=Meet Doctor Foo (New York, October 11, 1939)
TTITLE6=Fine Dinner (New York, October 11, 1939)
TTITLE7=She's Funny That Way (New York, October 11, 1939)
TTITLE8=Body And Soul (New York, October 11, 1939)
TTITLE9=It's Tight Like That (New York, December 14, 1939)
TTITLE10=Easy Rider (New York, December 14, 1939)
TTITLE11=Scratch My Back (New York, December 14, 1939)
TTITLE12=Save It, Pretty Mama (New York, December 14, 1939)
TTITLE13=When Day Is Done (New York, January 3, 1940)
TTITLE14=The Sheik Of Araby (New York, January 3, 1940)
TTITLE15=My Blue Heaven (New York, January 3, 1940)
TTITLE16=Bouncing With Bean (New York, January 3, 1940)
TTITLE17=How Long, How Long Blues (New York, January 15, 1940)
TTITLE18=Shake It And Break It (New York, January 15, 1940)
TTITLE19=A Pretty Girl Is Like A Melody (New York, January 15, 1940)
EXTD=
EXTT0=
EXTT1=
EXTT2=
EXTT3=
EXTT4=
EXTT5=
EXTT6=
EXTT7=
EXTT8=
EXTT9=
EXTT10=
EXTT11=
EXTT12=
EXTT13=
EXTT14=
EXTT15=
EXTT16=
EXTT17=
EXTT18=
EXTT19=
PLAYORDER=
